<?xml version="1.0" encoding="UTF-8"?> <svg xmlns="http://www.w3.org/2000/svg" xmlns:xlink="http://www.w3.org/1999/xlink" width="234" height="94" viewBox="0 0 234 94"><defs><clipPath id="clip-path"><path id="Path_379" data-name="Path 379" d="M607.22,497.364l25.088-2.826.742-1.757-.323-.43-25.118,2.77-.581,1.9Z" fill="none" clip-rule="evenodd"></path></clipPath><clipPath id="clip-path-2"><rect id="Rectangle_957" data-name="Rectangle 957" width="1400" height="5109" fill="none"></rect></clipPath><clipPath id="clip-path-3"><path id="Path_380" data-name="Path 380" d="M816.352,446l-3.793,3.355,1.8,2.018L790.2,453.85l-.609,1.973.234.219,25.991-2.809,3.907-3.454Z" fill="none" clip-rule="evenodd"></path></clipPath><clipPath id="clip-path-5"><path id="Path_381" data-name="Path 381" d="M770.6,462.721l4.329-3.839,3.853,4.313-4.329,3.839Z" fill="none" clip-rule="evenodd"></path></clipPath><clipPath id="clip-path-7"><path id="Path_382" data-name="Path 382" d="M752.44,481.724a57.954,57.954,0,0,0-1.632-10.37l-3.671.189c-.811,5.056-4.44,5.744-7.892,5.744-3.709,0-8.893-.919-12.323-3.5l-.422-.317.525-.062c4.74-.557,12.154-1.046,16.635-1.1l2.692-8.84-.587-.547c-4.52,1.179-13.884.005-17.435-2.851L728,459.8l.415-.1a47.54,47.54,0,0,1,16.8-1.033,43.018,43.018,0,0,0-.456-7.372,13.427,13.427,0,0,0-6.741-1.555,16.309,16.309,0,0,0-11.07,4,49.861,49.861,0,0,0-2.174,10.9,10.218,10.218,0,0,0,1.946,1.123l.19.092,9.489-.677.31,1.569-8.84.76c-1.581.139-3.09.33-4.275.538a87.951,87.951,0,0,0-2.209,13.81c4.948,4.363,9.713,6.224,15.915,6.224,4.834,0,11.685-1.664,15.147-6.352" fill="none" clip-rule="evenodd"></path></clipPath><clipPath id="clip-path-9"><path id="Path_383" data-name="Path 383" d="M821.831,462.142c-4.821-1.631-11.453-1.314-15.468.73l-4.178,11.058-.163-.018a11.378,11.378,0,0,1-3.578-.812l-.164-.077.05-.171c.193-.675.856-3.269,1.079-4.186l-3.507-.782c-.381,1.189-.894,2.821-1.456,4.632l-.028.09-.086.038a14.027,14.027,0,0,1-9.422.484l-.2-.053,1.021-4.424-3.593-.459c-.322,1.178-.673,2.588-1.066,4.306l-.026.114-.112.039c-4.129,1.424-12.319,1.664-18.263.533l-.176-.034.421-18.308h1.489l.356,6.893,3.161-.99-1.6-10.424-.716-.419-8.751,1.744c-.284,5.225-1,25.294-.157,31.514,2.952,2.457,16.645,2.337,20.374-.881l1.567-5.676h1.527l-.058.258c-.284,1.268-.548,2.391-.791,3.421-.28,1.187-.523,2.22-.738,3.231a12.409,12.409,0,0,0,10.737-.039l2.23-6.821h1.621l-.084.274c-.946,3.087-1.739,5.718-2.249,7.449a41.63,41.63,0,0,0,6.776.879l.288.017-1.923,5.088,4.189,1.969,2.606-6.937h.147c7.07-.036,16.422-.915,21.548-3.267A65.345,65.345,0,0,0,827,465.987c-.791-1.643-2.576-2.973-5.167-3.85Zm.8,10.5c-2.647,1.394-7.849,1.508-13.872,1.508-.492,0-.98,0-1.462,0H807l1.6-4.257.084-.037c5.391-2.247,11.687-1.131,14.033,2.488l.125.192-.2.108Z" fill="none" clip-rule="evenodd"></path></clipPath><clipPath id="clip-path-11"><path id="Path_384" data-name="Path 384" d="M776.435,452.132l.951.064-.532,1.487a23.262,23.262,0,0,0,4.047,1.02,12.56,12.56,0,0,0,.033-6.411l-2.065.6c.149.74.34,1.7.529,2.786l.05.282-.5-.062a14.054,14.054,0,0,1-2.093-.345l-.154-.057.249-2.182h-1.325c-.146.83-.759,3.094-.905,3.531l-.041.125-.131.017a7.464,7.464,0,0,1-2.322-.052L772,452.9l.05-.221c0-.013.279-1.255.526-2.466l-1.232-.435a18.446,18.446,0,0,0-1.307,5.057c1.017.985,3.615,1.191,5.017.64l1.387-3.342Z" fill="none" clip-rule="evenodd"></path></clipPath><clipPath id="clip-path-13"><path id="Path_385" data-name="Path 385" d="M612.22,518.577l.425-1.332,11.253,2.1c2.686-.572,5.533-1.328,8.7-2.309l1.791-8.157-.684-1.045a20.264,20.264,0,0,1-7.769-3.191c-2.6-1.551-5.055-3.018-8.795-3.018s-6.582.9-8.167,2.472l1,6.261a23.076,23.076,0,0,1,4.965-.641c3.344,0,6.511.821,10.935,2.832l.69.315-.753.1a108.3,108.3,0,0,1-17.6,1.217l-1.232.565-1.017,3.2-1.452,4.486a89.519,89.519,0,0,1,15.175,4.44l.523.207-.527.2a31.038,31.038,0,0,1-10.2,1.706c-7,0-9.244-1.157-9.244-4.767a31.419,31.419,0,0,1,1.427-7.085l-3.756-1.44c-3.3,4.628-4.905,9.026-4.905,13.444,0,5.016,3.681,10.871,14.061,10.871a24.953,24.953,0,0,0,16.452-6.13,63.062,63.062,0,0,0,2.466-12.3L612.161,518.8l.061-.227Z" fill="none" clip-rule="evenodd"></path></clipPath><clipPath id="clip-path-15"><path id="Path_386" data-name="Path 386" d="M634.153,520.855l-4.885,4.818,3.621,3.454-3.625,3.561,4.89,4.97,4.89-4.97-3.628-3.561,3.623-3.454Z" fill="none" clip-rule="evenodd"></path></clipPath><clipPath id="clip-path-17"><path id="Path_387" data-name="Path 387" d="M600.5,504.662l.971.066-.542,1.519a23.62,23.62,0,0,0,4.133,1.041,12.8,12.8,0,0,0,.033-6.547l-2.11.613c.153.756.346,1.739.54,2.845l.049.287-.514-.062a14.7,14.7,0,0,1-2.137-.352l-.159-.06.254-2.228h-1.353c-.148.849-.776,3.16-.924,3.606l-.043.129-.134.017a7.665,7.665,0,0,1-2.372-.054l-.228-.036.05-.225c0-.013.286-1.284.538-2.52l-1.261-.445a18.813,18.813,0,0,0-1.335,5.165c1.039,1.007,3.692,1.217,5.124.654l1.417-3.416Z" fill="none" clip-rule="evenodd"></path></clipPath><clipPath id="clip-path-19"><path id="Path_388" data-name="Path 388" d="M598.023,485.248V454.182h7.92v12.21h10.988v-12.21h7.922v31.066h-7.922V472.736H605.943v12.512Z" fill="none" clip-rule="evenodd"></path></clipPath><clipPath id="clip-path-21"><path id="Path_389" data-name="Path 389" d="M628.642,485.248l9.88-31.066h10.221l9.752,31.066h-8.3l-1.832-6.3H637.839l-1.833,6.3h-7.364Zm14.48-24.548-3.662,12.643h7.283L643.124,460.7Z" fill="none" clip-rule="evenodd"></path></clipPath><clipPath id="clip-path-23"><path id="Path_390" data-name="Path 390" d="M666.12,485.248V471.909l-9.967-17.727h8.6l5.621,11.124,5.58-11.124h7.537l-9.455,17.727v13.339Z" fill="none" clip-rule="evenodd"></path></clipPath><clipPath id="clip-path-25"><path id="Path_391" data-name="Path 391" d="M694.949,485.248V471.909l-9.965-17.727h8.6l5.621,11.124,5.578-11.124h7.539l-9.455,17.727v13.339Z" fill="none" clip-rule="evenodd"></path></clipPath><clipPath id="clip-path-27"><path id="Path_392" data-name="Path 392" d="M647.99,535.94V505.6h10.3l6.432,17.4,6.389-17.4h10.134V535.94h-7.836V515.955l-7.879,19.985h-2.641l-7.879-19.985V535.94Z" fill="none" clip-rule="evenodd"></path></clipPath><clipPath id="clip-path-29"><path id="Path_393" data-name="Path 393" d="M685.124,535.94l9.881-30.34h10.22l9.752,30.34h-8.3l-1.832-6.153H694.321l-1.832,6.153h-7.365Zm14.48-23.975-3.662,12.348h7.283l-3.619-12.348Z" fill="none" clip-rule="evenodd"></path></clipPath><clipPath id="clip-path-31"><path id="Path_394" data-name="Path 394" d="M718.811,535.94V505.6h7.922v12.474l9.836-12.474h8.264l-11.541,14.171,12.179,16.167h-9.156l-9.582-13.153V535.94Z" fill="none" clip-rule="evenodd"></path></clipPath><clipPath id="clip-path-33"><path id="Path_395" data-name="Path 395" d="M748.963,535.94V505.6h20.484v6.068H756.8v6.067h10.094v5.686H756.8v6.407h13.33v6.11Z" fill="none" clip-rule="evenodd"></path></clipPath><clipPath id="clip-path-35"><path id="Path_396" data-name="Path 396" d="M774.685,535.94V505.6h11.457c7.539,0,12.095,3.141,12.095,9.421v.169c0,4.413-2.47,6.873-5.833,8.019l7.622,12.731h-8.347L784.994,524.7h-2.471V535.94h-7.838Zm7.836-16.463H785.8c3.193,0,4.769-1.315,4.769-3.989v-.17c0-2.757-1.7-3.777-4.726-3.777h-3.322Z" fill="none" clip-rule="evenodd"></path></clipPath><clipPath id="clip-path-37"><path id="Path_397" data-name="Path 397" d="M801.514,526.35h7.539a5.719,5.719,0,0,0,1.235,3.141q1.086,1.272,4.087,1.273c2.768,0,4.43-1.4,4.43-3.48a2.461,2.461,0,0,0-1.107-2.249,11.726,11.726,0,0,0-4.131-1.147c-4.088-.51-6.984-1.484-8.73-2.886-1.7-1.4-2.555-3.605-2.555-6.577,0-5.3,4.471-9.249,11.5-9.249s11.2,3.055,11.754,9.292h-7.325c-.339-2.419-1.746-3.649-4.429-3.649s-4,1.273-4,3.013a2.651,2.651,0,0,0,.98,2.206,11.173,11.173,0,0,0,4.174,1.147c7.539.891,11.457,2.885,11.457,9.334,0,5.474-4.513,9.929-12.009,9.929-8.391,0-12.565-3.777-12.861-10.1" fill="none" clip-rule="evenodd"></path></clipPath></defs><g id="Group_2" data-name="Group 2" transform="translate(-593 -446)"><g id="Group_1830" data-name="Group 1830" clip-path="url(#clip-path)"><g id="Group_1829" data-name="Group 1829"><g id="Group_1828" data-name="Group 1828" clip-path="url(#clip-path-2)"><rect id="Rectangle_956" data-name="Rectangle 956" width="28.021" height="7.013" transform="translate(606.029 491.351)" fill="#e6f2fb"></rect></g></g></g><g id="Group_1834" data-name="Group 1834" clip-path="url(#clip-path-3)"><g id="Group_1833" data-name="Group 1833"><g id="Group_1832" data-name="Group 1832" clip-path="url(#clip-path-2)"><rect id="Rectangle_958" data-name="Rectangle 958" width="32.132" height="12.042" transform="translate(788.587 445)" fill="#e6f2fb"></rect></g></g></g><g id="Group_1838" data-name="Group 1838" clip-path="url(#clip-path-5)"><g id="Group_1837" data-name="Group 1837"><g id="Group_1836" data-name="Group 1836" clip-path="url(#clip-path-2)"><rect id="Rectangle_960" data-name="Rectangle 960" width="10.182" height="10.152" transform="translate(769.602 457.882)" fill="#e6f2fb"></rect></g></g></g><g id="Group_1842" data-name="Group 1842" clip-path="url(#clip-path-7)"><g id="Group_1841" data-name="Group 1841"><g id="Group_1840" data-name="Group 1840" clip-path="url(#clip-path-2)"><rect id="Rectangle_962" data-name="Rectangle 962" width="33.061" height="40.335" transform="translate(720.378 448.739)" fill="#e6f2fb"></rect></g></g></g><g id="Group_1846" data-name="Group 1846" clip-path="url(#clip-path-9)"><g id="Group_1845" data-name="Group 1845"><g id="Group_1844" data-name="Group 1844" clip-path="url(#clip-path-2)"><rect id="Rectangle_964" data-name="Rectangle 964" width="73.141" height="44.427" transform="translate(754.859 448.902)" fill="#e6f2fb"></rect></g></g></g><g id="Group_1850" data-name="Group 1850" clip-path="url(#clip-path-11)"><g id="Group_1849" data-name="Group 1849"><g id="Group_1848" data-name="Group 1848" clip-path="url(#clip-path-2)"><rect id="Rectangle_966" data-name="Rectangle 966" width="13.549" height="9.735" transform="translate(769.036 447.292)" fill="#e6f2fb"></rect></g></g></g><g id="Group_1854" data-name="Group 1854" clip-path="url(#clip-path-13)"><g id="Group_1853" data-name="Group 1853"><g id="Group_1852" data-name="Group 1852" clip-path="url(#clip-path-2)"><rect id="Rectangle_968" data-name="Rectangle 968" width="43.385" height="40.374" transform="translate(592 500.626)" fill="#e6f2fb"></rect></g></g></g><g id="Group_1858" data-name="Group 1858" clip-path="url(#clip-path-15)"><g id="Group_1857" data-name="Group 1857"><g id="Group_1856" data-name="Group 1856" clip-path="url(#clip-path-2)"><rect id="Rectangle_970" data-name="Rectangle 970" width="11.78" height="18.803" transform="translate(628.263 519.855)" fill="#e6f2fb"></rect></g></g></g><g id="Group_1862" data-name="Group 1862" clip-path="url(#clip-path-17)"><g id="Group_1861" data-name="Group 1861"><g id="Group_1860" data-name="Group 1860" clip-path="url(#clip-path-2)"><rect id="Rectangle_972" data-name="Rectangle 972" width="13.805" height="9.897" transform="translate(592.959 499.741)" fill="#e6f2fb"></rect></g></g></g><g id="Group_1867" data-name="Group 1867"><g id="Group_1866" data-name="Group 1866" clip-path="url(#clip-path-19)"><g id="Group_1865" data-name="Group 1865"><g id="Group_1864" data-name="Group 1864" clip-path="url(#clip-path-2)"><rect id="Rectangle_974" data-name="Rectangle 974" width="28.83" height="33.066" transform="translate(597.023 453.182)" fill="#e6f2fb"></rect></g></g></g></g><g id="Group_1870" data-name="Group 1870" clip-path="url(#clip-path-21)"><g id="Group_1869" data-name="Group 1869"><g id="Group_1868" data-name="Group 1868" clip-path="url(#clip-path-2)"><rect id="Rectangle_976" data-name="Rectangle 976" width="31.855" height="33.066" transform="translate(627.639 453.182)" fill="#e6f2fb"></rect></g></g></g><g id="Group_1874" data-name="Group 1874" clip-path="url(#clip-path-23)"><g id="Group_1873" data-name="Group 1873"><g id="Group_1872" data-name="Group 1872" clip-path="url(#clip-path-2)"><rect id="Rectangle_978" data-name="Rectangle 978" width="29.341" height="33.066" transform="translate(655.153 453.182)" fill="#e6f2fb"></rect></g></g></g><g id="Group_1878" data-name="Group 1878" clip-path="url(#clip-path-25)"><g id="Group_1877" data-name="Group 1877"><g id="Group_1876" data-name="Group 1876" clip-path="url(#clip-path-2)"><rect id="Rectangle_980" data-name="Rectangle 980" width="29.341" height="33.066" transform="translate(683.984 453.182)" fill="#e6f2fb"></rect></g></g></g><g id="Group_1882" data-name="Group 1882" clip-path="url(#clip-path-27)"><g id="Group_1881" data-name="Group 1881"><g id="Group_1880" data-name="Group 1880" clip-path="url(#clip-path-2)"><rect id="Rectangle_982" data-name="Rectangle 982" width="35.259" height="32.338" transform="translate(646.99 504.602)" fill="#e6f2fb"></rect></g></g></g><g id="Group_1886" data-name="Group 1886" clip-path="url(#clip-path-29)"><g id="Group_1885" data-name="Group 1885"><g id="Group_1884" data-name="Group 1884" clip-path="url(#clip-path-2)"><rect id="Rectangle_984" data-name="Rectangle 984" width="31.855" height="32.34" transform="translate(684.122 504.6)" fill="#e6f2fb"></rect></g></g></g><g id="Group_1890" data-name="Group 1890" clip-path="url(#clip-path-31)"><g id="Group_1889" data-name="Group 1889"><g id="Group_1888" data-name="Group 1888" clip-path="url(#clip-path-2)"><rect id="Rectangle_986" data-name="Rectangle 986" width="28.66" height="32.338" transform="translate(717.811 504.602)" fill="#e6f2fb"></rect></g></g></g><g id="Group_1894" data-name="Group 1894" clip-path="url(#clip-path-33)"><g id="Group_1893" data-name="Group 1893"><g id="Group_1892" data-name="Group 1892" clip-path="url(#clip-path-2)"><rect id="Rectangle_988" data-name="Rectangle 988" width="23.166" height="32.338" transform="translate(747.963 504.602)" fill="#e6f2fb"></rect></g></g></g><g id="Group_1898" data-name="Group 1898" clip-path="url(#clip-path-35)"><g id="Group_1897" data-name="Group 1897"><g id="Group_1896" data-name="Group 1896" clip-path="url(#clip-path-2)"><rect id="Rectangle_990" data-name="Rectangle 990" width="27.342" height="32.34" transform="translate(773.685 504.6)" fill="#e6f2fb"></rect></g></g></g><g id="Group_1902" data-name="Group 1902" clip-path="url(#clip-path-37)"><g id="Group_1901" data-name="Group 1901"><g id="Group_1900" data-name="Group 1900" clip-path="url(#clip-path-2)"><rect id="Rectangle_992" data-name="Rectangle 992" width="26.873" height="33.272" transform="translate(800.514 504.176)" fill="#e6f2fb"></rect></g></g></g></g></svg> 